<mxfile host="app.diagrams.net" modified="2023-02-09T03:57:14.051Z" agent="5.0 (X11)" etag="nhDuDDFkiLRbyugcVfQP" version="20.8.18" type="github">
  <diagram name="Page-1" id="XzVBgIWI4deymh5A6jbV">
    <mxGraphModel dx="957" dy="811" grid="1" gridSize="10" guides="1" tooltips="1" connect="1" arrows="1" fold="1" page="1" pageScale="1" pageWidth="850" pageHeight="1100" math="0" shadow="0">
      <root>
        <mxCell id="0" />
        <mxCell id="1" parent="0" />
        <mxCell id="UxGyb9DE3IA88hsAa_5P-1" value="" style="rounded=0;whiteSpace=wrap;html=1;fontFamily=Helvetica;fontSize=19;" vertex="1" parent="1">
          <mxGeometry x="120" y="20" width="680" height="730" as="geometry" />
        </mxCell>
        <mxCell id="UxGyb9DE3IA88hsAa_5P-2" value="Usecase - Manage Account" style="text;html=1;strokeColor=none;fillColor=none;align=center;verticalAlign=middle;whiteSpace=wrap;rounded=0;fontSize=19;fontFamily=Helvetica;" vertex="1" parent="1">
          <mxGeometry x="345" y="40" width="270" height="30" as="geometry" />
        </mxCell>
        <mxCell id="UxGyb9DE3IA88hsAa_5P-5" style="edgeStyle=none;rounded=0;orthogonalLoop=1;jettySize=auto;html=1;fontFamily=Helvetica;fontSize=12;" edge="1" parent="1" source="UxGyb9DE3IA88hsAa_5P-6" target="UxGyb9DE3IA88hsAa_5P-7">
          <mxGeometry relative="1" as="geometry" />
        </mxCell>
        <mxCell id="UxGyb9DE3IA88hsAa_5P-6" value="&lt;div&gt;Admin&lt;/div&gt;" style="shape=umlActor;verticalLabelPosition=bottom;verticalAlign=top;html=1;outlineConnect=0;fontFamily=Helvetica;fontSize=19;" vertex="1" parent="1">
          <mxGeometry x="40" y="230" width="30" height="60" as="geometry" />
        </mxCell>
        <mxCell id="UxGyb9DE3IA88hsAa_5P-7" value="Managge Account" style="ellipse;whiteSpace=wrap;html=1;fontFamily=Helvetica;fontSize=19;" vertex="1" parent="1">
          <mxGeometry x="180" y="230" width="120" height="80" as="geometry" />
        </mxCell>
        <mxCell id="UxGyb9DE3IA88hsAa_5P-8" value="extends" style="edgeStyle=none;rounded=0;orthogonalLoop=1;jettySize=auto;html=1;fontFamily=Helvetica;fontSize=12;dashed=1;dashPattern=8 8;" edge="1" parent="1" source="UxGyb9DE3IA88hsAa_5P-9" target="UxGyb9DE3IA88hsAa_5P-7">
          <mxGeometry relative="1" as="geometry" />
        </mxCell>
        <mxCell id="UxGyb9DE3IA88hsAa_5P-9" value="&lt;font style=&quot;font-size: 18px;&quot;&gt;Change Account information&lt;br&gt;&lt;/font&gt;" style="ellipse;whiteSpace=wrap;html=1;fontFamily=Helvetica;fontSize=19;" vertex="1" parent="1">
          <mxGeometry x="390" y="365" width="120" height="80" as="geometry" />
        </mxCell>
        <mxCell id="UxGyb9DE3IA88hsAa_5P-10" value="extends" style="edgeStyle=none;rounded=0;orthogonalLoop=1;jettySize=auto;html=1;dashed=1;dashPattern=8 8;fontFamily=Helvetica;fontSize=12;" edge="1" parent="1" source="UxGyb9DE3IA88hsAa_5P-11" target="UxGyb9DE3IA88hsAa_5P-9">
          <mxGeometry relative="1" as="geometry" />
        </mxCell>
        <mxCell id="UxGyb9DE3IA88hsAa_5P-11" value="Upload User Avatar" style="ellipse;whiteSpace=wrap;html=1;fontFamily=Helvetica;fontSize=18;" vertex="1" parent="1">
          <mxGeometry x="500" y="620" width="120" height="80" as="geometry" />
        </mxCell>
        <mxCell id="UxGyb9DE3IA88hsAa_5P-12" value="extends" style="edgeStyle=none;rounded=0;orthogonalLoop=1;jettySize=auto;html=1;dashed=1;dashPattern=8 8;fontFamily=Helvetica;fontSize=12;" edge="1" parent="1" source="UxGyb9DE3IA88hsAa_5P-13" target="UxGyb9DE3IA88hsAa_5P-7">
          <mxGeometry relative="1" as="geometry" />
        </mxCell>
        <mxCell id="UxGyb9DE3IA88hsAa_5P-13" value="Create Account" style="ellipse;whiteSpace=wrap;html=1;fontFamily=Helvetica;fontSize=18;" vertex="1" parent="1">
          <mxGeometry x="420" y="100" width="120" height="80" as="geometry" />
        </mxCell>
        <mxCell id="UxGyb9DE3IA88hsAa_5P-15" value="extends" style="edgeStyle=none;rounded=0;orthogonalLoop=1;jettySize=auto;html=1;fontFamily=Helvetica;fontSize=12;dashed=1;dashPattern=8 8;" edge="1" parent="1" source="UxGyb9DE3IA88hsAa_5P-14" target="UxGyb9DE3IA88hsAa_5P-7">
          <mxGeometry relative="1" as="geometry" />
        </mxCell>
        <mxCell id="UxGyb9DE3IA88hsAa_5P-14" value="List Account" style="ellipse;whiteSpace=wrap;html=1;fontFamily=Helvetica;fontSize=18;" vertex="1" parent="1">
          <mxGeometry x="470" y="220" width="120" height="80" as="geometry" />
        </mxCell>
        <mxCell id="UxGyb9DE3IA88hsAa_5P-17" value="extends" style="edgeStyle=none;rounded=0;orthogonalLoop=1;jettySize=auto;html=1;dashed=1;dashPattern=8 8;fontFamily=Helvetica;fontSize=12;" edge="1" parent="1" source="UxGyb9DE3IA88hsAa_5P-16" target="UxGyb9DE3IA88hsAa_5P-9">
          <mxGeometry relative="1" as="geometry" />
        </mxCell>
        <mxCell id="UxGyb9DE3IA88hsAa_5P-16" value="Add/remove User" style="ellipse;whiteSpace=wrap;html=1;fontFamily=Helvetica;fontSize=18;" vertex="1" parent="1">
          <mxGeometry x="650" y="440" width="120" height="80" as="geometry" />
        </mxCell>
      </root>
    </mxGraphModel>
  </diagram>
</mxfile>
